<?xml version="1.0" encoding="utf-8"?>
<svg viewBox="0 0 500 500" xmlns="http://www.w3.org/2000/svg">
  <g transform="matrix(1.5556559562683108, 0, 0, 1.5556559562683108, -533.462158203125, -158.09173583984375)" style="">
    <path d="M 491.927 173.838 C 492.168 173.836 492.409 173.833 492.657 173.829 C 493.045 173.827 493.045 173.827 493.44 173.825 C 493.713 173.823 493.986 173.821 494.268 173.818 C 495.161 173.813 496.054 173.811 496.947 173.81 C 497.253 173.81 497.559 173.81 497.874 173.81 C 514.655 173.828 537.087 176.357 549.767 188.757 C 550.485 189.5 551.056 190.176 551.632 191.039 C 551.527 191.354 551.423 191.668 551.315 191.992 C 551.098 191.957 550.881 191.922 550.657 191.886 C 527.642 188.181 502.834 188.776 483.123 202.862 C 481.899 203.756 480.714 204.692 479.539 205.649 C 479.37 205.785 479.201 205.921 479.027 206.061 C 475.093 209.249 471.508 212.74 468.423 216.764 C 468.264 216.968 468.105 217.171 467.941 217.381 C 458.093 230.029 451.615 245.366 449.368 261.228 C 449.335 261.44 449.302 261.653 449.268 261.871 C 448.917 264.468 448.973 267.107 448.971 269.723 C 448.971 269.985 448.97 270.248 448.97 270.519 C 448.976 274.587 449.16 278.514 450.003 282.506 C 450.058 282.775 450.112 283.045 450.168 283.323 C 454.234 303.059 467.255 321.177 483.071 333.425 C 483.268 333.6 483.464 333.775 483.668 333.956 C 483.668 334.165 483.668 334.375 483.668 334.591 C 480.309 335.177 477.064 335.342 473.663 335.325 C 473.413 335.325 473.162 335.324 472.903 335.323 C 455.641 335.248 439.586 328.35 427.136 316.488 C 426.889 316.258 426.642 316.027 426.387 315.79 C 416.663 306.463 410.244 292.467 408.081 279.33 C 408.044 279.121 408.008 278.911 407.97 278.696 C 406.868 272.175 407.137 265.059 407.704 258.488 C 407.726 258.222 407.748 257.956 407.771 257.681 C 408.186 253.66 409.746 251.027 412.822 248.454 C 413.701 247.698 414.501 246.876 415.306 246.042 C 415.911 245.454 416.529 244.906 417.169 244.357 C 418.581 243.125 419.91 241.822 421.232 240.496 C 421.477 240.251 421.722 240.007 421.975 239.755 C 422.489 239.24 423.002 238.727 423.516 238.211 C 424.295 237.43 425.077 236.65 425.859 235.87 C 426.361 235.368 426.864 234.865 427.366 234.362 C 427.712 234.017 427.712 234.017 428.065 233.665 C 428.285 233.444 428.506 233.222 428.733 232.994 C 428.923 232.803 429.114 232.612 429.31 232.416 C 429.907 231.784 430.478 231.139 431.046 230.481 C 432.132 229.233 433.271 228.053 434.441 226.886 C 434.652 226.676 434.862 226.464 435.078 226.248 C 435.764 225.56 436.452 224.874 437.139 224.187 C 437.621 223.704 438.104 223.222 438.585 222.74 C 439.593 221.733 440.6 220.725 441.609 219.719 C 442.896 218.433 444.181 217.146 445.467 215.859 C 446.461 214.864 447.456 213.87 448.451 212.875 C 448.925 212.401 449.399 211.927 449.872 211.452 C 450.536 210.788 451.201 210.124 451.867 209.461 C 452.059 209.268 452.251 209.075 452.449 208.876 C 453.393 207.937 454.352 207.035 455.361 206.168 C 456.844 204.885 458.216 203.5 459.593 202.104 C 459.873 201.822 460.153 201.539 460.442 201.248 C 461.047 200.637 461.651 200.027 462.255 199.416 C 463.212 198.448 464.172 197.482 465.132 196.516 C 465.462 196.185 465.792 195.853 466.122 195.52 C 466.287 195.354 466.453 195.188 466.623 195.017 C 468.854 192.773 471.082 190.526 473.308 188.276 C 474.813 186.752 476.322 185.233 477.834 183.715 C 478.632 182.914 479.429 182.112 480.222 181.306 C 481.106 180.407 481.997 179.515 482.888 178.622 C 483.146 178.358 483.404 178.094 483.669 177.822 C 486.012 175.497 488.543 173.874 491.927 173.838 Z" fill="#1A1A1A" style=""/>
    <path d="M 570.864 216.526 C 571.402 217.011 571.939 217.497 572.473 217.985 C 573.157 218.605 573.854 219.204 574.559 219.801 C 575.831 220.915 576.905 222.142 577.992 223.434 C 578.39 223.886 578.39 223.886 578.796 224.346 C 588.335 235.226 594.226 250.063 594.243 264.571 C 594.244 264.884 594.245 265.198 594.246 265.521 C 594.247 266.183 594.249 266.844 594.248 267.506 C 594.249 268.499 594.255 269.492 594.261 270.485 C 594.271 273.436 594.245 276.389 594.007 279.331 C 593.996 279.553 593.984 279.775 593.972 280.003 C 593.648 283.223 590.156 285.633 588 287.784 C 587.669 288.115 587.337 288.447 587.006 288.779 C 586.114 289.673 585.221 290.565 584.327 291.458 C 583.389 292.396 582.451 293.335 581.512 294.274 C 579.937 295.849 578.361 297.425 576.784 299 C 574.967 300.815 573.15 302.632 571.335 304.45 C 569.77 306.016 568.205 307.581 566.64 309.146 C 565.707 310.078 564.775 311.01 563.843 311.943 C 562.966 312.821 562.089 313.697 561.211 314.573 C 560.891 314.893 560.571 315.213 560.251 315.534 C 557.54 318.249 557.54 318.249 556.104 319.477 C 554.313 321.016 552.681 322.721 551.023 324.401 C 550.648 324.78 550.272 325.16 549.896 325.539 C 549.09 326.352 548.285 327.166 547.48 327.979 C 546.205 329.267 544.928 330.554 543.65 331.839 C 543.434 332.057 543.218 332.274 542.995 332.499 C 542.553 332.943 542.111 333.389 541.669 333.833 C 538.697 336.823 535.727 339.813 532.764 342.812 C 530.761 344.838 528.753 346.861 526.741 348.88 C 525.679 349.946 524.618 351.014 523.563 352.088 C 522.57 353.097 521.572 354.101 520.569 355.101 C 520.205 355.467 519.841 355.836 519.48 356.206 C 516.13 359.637 512.962 361.187 508.144 361.32 C 507.561 361.326 506.978 361.33 506.396 361.333 C 506.081 361.335 505.767 361.337 505.443 361.34 C 492.392 361.412 492.392 361.412 486.843 360.316 C 486.345 360.222 486.345 360.222 485.836 360.125 C 481.799 359.343 477.832 358.349 473.902 357.14 C 473.411 356.994 473.411 356.994 472.911 356.843 C 470.524 356.075 468.795 355.121 467.491 352.932 C 467.065 351.431 466.889 350.111 467.153 348.565 C 467.729 347.592 467.729 347.592 468.741 346.977 C 470.93 346.574 473.181 346.643 475.397 346.68 C 487.28 346.876 498.684 344.534 509.393 339.355 C 509.69 339.212 509.69 339.212 509.994 339.066 C 515.14 336.565 520.011 333.266 524.32 329.509 C 524.673 329.213 525.027 328.918 525.381 328.622 C 528.769 325.787 531.992 322.769 534.8 319.347 C 535.056 319.035 535.312 318.724 535.577 318.404 C 545.722 305.89 551.274 291.184 552.903 275.201 C 552.945 274.806 552.986 274.411 553.03 274.004 C 554.845 253.314 547.961 233.729 534.74 217.936 C 530.201 212.597 525.355 207.553 519.602 203.523 C 518.756 202.903 518.043 202.286 517.332 201.521 C 526.805 192.047 562.528 209.184 570.864 216.526 Z" fill="#1A1A1A" style=""/>
  </g>
</svg>